<?xml version="1.0" encoding="UTF-8" standalone="no"?><!DOCTYPE svg PUBLIC "-//W3C//DTD SVG 1.1//EN" "http://www.w3.org/Graphics/SVG/1.1/DTD/svg11.dtd"><svg width="100%" height="100%" viewBox="0 0 240 240" version="1.1" xmlns="http://www.w3.org/2000/svg" xmlns:xlink="http://www.w3.org/1999/xlink" xml:space="preserve" xmlns:serif="http://www.serif.com/" style="fill-rule:evenodd;clip-rule:evenodd;stroke-linecap:round;stroke-linejoin:round;stroke-miterlimit:1.5;"><rect id="ArtBoard1" x="0" y="0" width="240" height="240" style="fill:#0d150c;"/><g id="ArtBoard11" serif:id="ArtBoard1"><g><circle cx="120" cy="120.001" r="22.421" style="fill:none;stroke:#75eb56;stroke-width:10px;"/><path d="M57.321,86.105c24.845,8.441 40.258,15.228 40.258,33.985c0,18.757 -17.083,25.878 -40.258,33.985c-20.526,7.181 -31.06,-0.655 -31.06,-34.074c0,-35.453 10.449,-40.9 31.06,-33.896Z" style="fill:none;stroke:#75eb56;stroke-width:10px;"/><path d="M182.679,86.117c-24.845,8.442 -40.258,15.228 -40.258,33.985c-0,18.757 17.083,25.878 40.258,33.985c20.526,7.182 31.06,-0.655 31.06,-34.074c-0,-35.453 -10.449,-40.9 -31.06,-33.896Z" style="fill:none;stroke:#75eb56;stroke-width:10px;"/></g></g></svg>